<?xml version="1.0" encoding="utf-8"?>
<!-- Generator: Adobe Illustrator 16.0.0, SVG Export Plug-In . SVG Version: 6.00 Build 0)  -->
<!DOCTYPE svg PUBLIC "-//W3C//DTD SVG 1.1//EN" "http://www.w3.org/Graphics/SVG/1.1/DTD/svg11.dtd">
<svg version="1.1" id="Layer_1" xmlns="http://www.w3.org/2000/svg" xmlns:xlink="http://www.w3.org/1999/xlink" x="0px" y="0px"
	 width="130px" height="130px" viewBox="0 0 130 130" enable-background="new 0 0 130 130" xml:space="preserve">
<path d="M24.954,121.7h66.312c11.098-0.001,20.094-9,20.092-20.098c0-0.838-0.053-1.677-0.158-2.509l-6.279-50.236
	c-1.275-10.037-9.807-17.565-19.924-17.583h-1.768v-5.024c0-13.872-11.246-25.118-25.119-25.118S32.992,12.379,32.992,26.251v5.024
	h-1.769c-10.121,0.012-18.657,7.542-19.934,17.583L5.01,99.094c-1.387,11.012,6.414,21.062,17.425,22.449
	C23.271,121.648,24.112,121.7,24.954,121.7z M43.039,26.251c0-8.323,6.747-15.071,15.071-15.071s15.071,6.748,15.071,15.071v5.024
	H43.039V26.251z M14.977,100.36l6.28-50.237c0.628-5.026,4.901-8.799,9.967-8.801h1.769v10.047c0,2.774,2.249,5.023,5.023,5.023
	s5.024-2.249,5.024-5.023V41.322h30.142v10.047c0,2.774,2.25,5.023,5.023,5.023c2.774,0,5.024-2.249,5.024-5.023V41.322h1.768
	c5.066,0.001,9.339,3.774,9.967,8.801l6.279,50.237c0.688,5.506-3.217,10.526-8.724,11.215c-0.415,0.053-0.833,0.078-1.253,0.078
	H24.954c-5.549-0.002-10.046-4.501-10.044-10.051c0-0.415,0.026-0.83,0.078-1.242H14.977z"/>
<circle stroke="#000000" stroke-width="8" stroke-miterlimit="10" cx="94.969" cy="96.669" r="28.181"/>
<g>
	<line fill="#6D4C00" stroke="#FFFFFF" stroke-width="6" stroke-miterlimit="10" x1="77.068" y1="97.384" x2="113.9" y2="97.384"/>
	
		<line fill="#6D4C00" stroke="#FFFFFF" stroke-width="6" stroke-miterlimit="10" x1="96.089" y1="77.602" x2="96.089" y2="116.246"/>
</g>
<g>
</g>
<g>
</g>
<g>
</g>
<g>
</g>
<g>
</g>
<g>
</g>
<g>
</g>
<g>
</g>
<g>
</g>
<g>
</g>
<g>
</g>
<g>
</g>
<g>
</g>
<g>
</g>
<g>
</g>
</svg>
